<svg width="48" height="48" viewBox="0 0 48 48" fill="none" xmlns="http://www.w3.org/2000/svg">
<path fill-rule="evenodd" clip-rule="evenodd" d="M17.6667 5L29.3334 11.6316L39.5002 5.85263L41.0002 5V6.72539V25.9994C40.5305 25.6466 40.0288 25.3342 39.5002 25.0674V7.57802L30.0834 12.9307V25.2901C29.5512 25.5912 29.0493 25.9396 28.5834 26.3298V12.9307L18.4167 7.1517V33.0693L25.4857 37.0875C25.7596 37.9321 26.1429 38.7275 26.6188 39.4569L17.6667 34.3684L7.5 40.1474L6 41V39.2746V11.6316L17.6667 5ZM16.9167 7.1517L7.5 12.5043V38.422L16.9167 33.0693V7.1517Z" fill="#83868F"/>
<path fill-rule="evenodd" clip-rule="evenodd" d="M41.5 34C41.5 37.5899 38.5899 40.5 35 40.5C31.4101 40.5 28.5 37.5899 28.5 34C28.5 30.4101 31.4101 27.5 35 27.5C38.5899 27.5 41.5 30.4101 41.5 34ZM40.3526 39.9456C38.935 41.2227 37.0583 42 35 42C30.5817 42 27 38.4183 27 34C27 29.5817 30.5817 26 35 26C39.4183 26 43 29.5817 43 34C43 35.8195 42.3926 37.4971 41.3695 38.8411L44.0549 41.5283L42.9938 42.5886L40.3526 39.9456Z" fill="url(#paint0_linear_8794_15706)"/>
<path d="M32.5 34.4883H37.5" stroke="#1BE0C6" stroke-width="1.5"/>
<defs>
<linearGradient id="paint0_linear_8794_15706" x1="27" y1="34.2943" x2="44.0549" y2="34.2943" gradientUnits="userSpaceOnUse">
<stop stop-color="#1D56F5"/>
<stop offset="1" stop-color="#00B3F5"/>
</linearGradient>
</defs>
</svg>
