<svg fill="none" height="64" viewBox="0 0 64 64" width="64" xmlns="http://www.w3.org/2000/svg"><rect fill="#1f2124" height="64" rx="32" width="64"/><g stroke-linecap="round" stroke-linejoin="round" stroke-width=".196364"><path d="m51.2226 12.4584-16.7265 12.3731 3.1187-7.294z" fill="#e17726" stroke="#e17726"/><path d="m12.6522 12.4584 16.5738 12.4749-2.966-7.3831zm32.5492 28.6795-4.4553 6.7975 9.5344 2.6223 2.7241-9.267zm-34.3186.1528 2.7114 9.267 9.5089-2.6223-4.4299-6.7975z" fill="#e27625" stroke="#e27625"/><path d="m22.593 29.6558-2.6477 3.997 9.4198.4328-.3055-10.1453-6.4666 5.7282zm18.6869.0127-6.5684-5.8555-.2164 10.2726 9.4198-.4328zm-18.1777 18.2668 5.7155-2.7496-4.9135-3.8188zm11.9657-2.7623 5.6774 2.7623-.7638-6.5811z" fill="#e27625" stroke="#e27625"/><path d="m40.7446 47.9356-5.6773-2.7495.4582 3.6915-.0509 1.5657zm-17.643 0 5.2954 2.5077-.0382-1.5657.4583-3.6915z" fill="#d5bfb2" stroke="#d5bfb2"/><path d="m28.4872 38.9102-4.7099-1.3748 3.3352-1.5275 1.3875 2.9023zm6.8867 0 1.4002-2.9151 3.3479 1.5276-4.7481 1.4002z" fill="#233447" stroke="#233447"/><path d="m23.0978 47.9354.8274-6.7976-5.2572.1528zm16.8411-6.7976.802 6.7976 4.4553-6.6448zm3.9843-7.4849-9.4198.4328.8656 4.8372 1.4003-2.9278 3.3478 1.5276zm-20.1507 3.8825 3.3351-1.5276 1.3875 2.9024.8783-4.8372-9.4198-.4201z" fill="#cc6228" stroke="#cc6228"/><path d="m19.957 33.6529 3.9462 7.7013-.1273-3.8188zm20.1635 3.8825-.1527 3.8188 3.9461-7.7013zm-10.7437-3.4497-.891 4.8372 1.1202 5.7028.2546-7.5231zm5.1173 0-.4583 3.0041.2291 7.5359 1.1075-5.7155-.8783-4.8372z" fill="#e27525" stroke="#e27525"/><path d="m35.371 38.9103-1.1075 5.7155.802.5601 4.9008-3.8188.1528-3.8316zm-11.5966-1.3748.1273 3.8189 4.9136 3.8188.7892-.5474-1.1074-5.7155-4.7354-1.3748z" fill="#f5841f" stroke="#f5841f"/><path d="m35.4873 50.4431.0382-1.5657-.4328-.3564h-6.3138l-.4201.3564.0382 1.5657-5.2954-2.5077 1.8585 1.5276 3.7552 2.5841h6.4283l3.768-2.5969 1.833-1.5148-5.27 2.5077z" fill="#c0ac9d" stroke="#c0ac9d"/><path d="m35.0717 45.1729-.8019-.5474h-4.659l-.7893.5601-.4582 3.6915.4201-.3564h6.3138l.4328.3564-.4583-3.6915z" fill="#161616" stroke="#161616"/><path d="m51.9353 25.6336 1.4002-6.8103-2.1131-6.3647-16.1664 11.9657 6.2247 5.2318 8.7833 2.5586 1.9349-2.2531-.8401-.611 1.3366-1.2221-1.0184-.7892 1.3366-1.0184-.8911-.6873zm-41.3962-6.823 1.4257 6.823-.9166.6746 1.3621 1.0184-1.0184.8019 1.3239 1.2221-.8401.611 1.9348 2.2531 8.7834-2.5459 6.2247-5.2573-16.1664-11.9529z" fill="#763e1a" stroke="#763e1a"/><path d="m50.0641 32.2144-8.7833-2.5459 2.6477 3.9843-3.9461 7.7013 5.219-.0636h7.8032zm-27.4702-2.5587-8.7833 2.5587-2.9278 9.0761h7.8032l5.2191.0636-3.9462-7.7013 2.6477-3.9971zm11.9021 4.4299.5728-9.6744 2.5459-6.8739h-11.3547l2.5459 6.8739.5728 9.6744.2164 3.0296v7.5104h4.6717l.0255-7.5104z" fill="#f5841f" stroke="#f5841f"/></g></svg>