<svg width="48" height="48" viewBox="0 0 48 48" fill="none" xmlns="http://www.w3.org/2000/svg">
<path fill-rule="evenodd" clip-rule="evenodd" d="M12.5 9.5H33.5V20.7731C34.0092 20.8045 34.5099 20.8676 35 20.9606V9.5V8H33.5H12.5H11V9.5V39.5V41H12.5H24.0357C23.5943 40.5338 23.1898 40.0323 22.827 39.5H12.5V9.5Z" fill="#83868F"/>
<circle cx="33" cy="33" r="9.25" stroke="url(#paint0_linear_11576_70700)" stroke-width="1.5"/>
<path fill-rule="evenodd" clip-rule="evenodd" d="M35.125 29H35V27.5H33.5V29H32.5V27.5H31V29H30.5H29V30.5V32.25V33.75V35.5V37H30.5H31V38.5H32.5V37H33.5V38.5H35V37H35.125C36.4367 37 37.5 35.9367 37.5 34.625C37.5 33.9964 37.2558 33.4248 36.8571 33C37.2558 32.5752 37.5 32.0036 37.5 31.375C37.5 30.0633 36.4367 29 35.125 29ZM30.5 30.5H35.125C35.6082 30.5 36 30.8918 36 31.375C36 31.8582 35.6082 32.25 35.125 32.25H30.5V30.5ZM35.125 33.75H30.5V35.5H35.125C35.6082 35.5 36 35.1082 36 34.625C36 34.1418 35.6082 33.75 35.125 33.75Z" fill="#1BE0C6"/>
<defs>
<linearGradient id="paint0_linear_11576_70700" x1="23" y1="33" x2="43" y2="33" gradientUnits="userSpaceOnUse">
<stop stop-color="#1D56F5"/>
<stop offset="1" stop-color="#00B3F5"/>
</linearGradient>
</defs>
</svg>
