<svg fill="none" height="48" viewBox="0 0 48 48" width="48" xmlns="http://www.w3.org/2000/svg" xmlns:xlink="http://www.w3.org/1999/xlink"><linearGradient id="a" gradientUnits="userSpaceOnUse" x1="10.5" x2="37.5" y1="24.1459" y2="24.1459"><stop offset="0" stop-color="#1d56f5"/><stop offset="1" stop-color="#00b3f5"/></linearGradient><path d="m12.1852 7h-5.1852v5.037m29.8148-5.037h5.1852v5.037m0 23.926v5.037h-5.1852m-24.6296 0h-5.1852v-5.037" stroke="#83868f" stroke-linecap="square" stroke-width="1.5"/><g fill="url(#a)"><path d="m37.5 19.3118v-2.644l-12.217-5.4178-1.1977.5312v24.7294l1.1977.5312 1.1977-.5311v-11.0169h3.2v-2.4433h-3.2v-8.604l5.7055 2.5191v17.0149l2.3953-1.0623v-14.8949z"/><path d="m15.7559 15.475 3.3901 11.0263v-12.5297l2.3954-1.0623v22.4732l-2.3954-1.0623v-.1142l-.1253.0386-3.5579-11.5721v10.0143l-2.3954-1.0623v-14.9572z"/></g></svg>